<svg width="1440" height="516" viewBox="0 0 1440 516" fill="none" xmlns="http://www.w3.org/2000/svg">
<g opacity="0.6">
<g opacity="0.3">
<path d="M-151.48 392.65L-134.23 408.02L-119.04 427.23L-101.51 444.1L-82.5105 459.56L-69.5105 480.98L-52.1805 498.06L-32.8405 513.83L-14.1205 497.83L1.46953 479.38L17.8295 461.71L37.0595 446.83L50.1295 425.83L71.5895 413.26L85.1295 392.83L103.75 377.41L122.03 361.66L139.23 344.83L152.08 323.66L170.41 307.95L186.87 290.38L206.87 276.32L221.05 256.47L239.98 241.36L254.5 221.83L274.56 207.83L290.66 189.9L309.06 174.25L324.21 155.36L341.43 138.53L357.09 121.63L340.68 105.11L325.01 86.43L304.91 72.13L288.86 53.83L270.92 37.29L253.05 20.76L238.14 1.42L219.31 16.44L202.05 33.22L184.98 50.22L172.5 71.73L155.21 88.48L136.15 103.48L121 122.33L99.7095 135.09L86.4395 155.83L68.1495 171.57L50.3095 187.76L33.7995 205.28L16.4095 221.94L1.81952 241.39L-15.0505 258.55L-34.0505 273.55L-49.6905 292.01L-67.9505 307.76L-86.8305 322.91L-99.9305 343.83L-119.93 357.83L-133.94 377.83L-151.48 392.65Z" stroke="#1B95E0" stroke-miterlimit="10"/>
<path d="M-33.9402 224.9L-17.9702 210.16L-3.59019 192.37L14.1098 177.92L28.4198 160.06L47.2698 146.74L61.8398 129.15L80.9398 112.77L56.8298 105.84L34.3198 101.99L12.7898 94.46L-8.8802 87.46L-31.7902 85.08L-52.7802 75.52L-73.7002 74.01L-68.3602 93.9L-63.5402 116.15L-56.6902 137.86L-49.3202 159.43L-43.9902 181.55L-37.7402 203.4L-33.9402 224.9Z" stroke="#1B95E0" stroke-miterlimit="10"/>
<path d="M242.349 287.16L224.699 298.79L212.929 319.18L195.669 334.07L177.659 348.23L160.279 363.03L148.419 383.34L133.199 396.71L152.099 404.26L174.199 409.67L195.759 417.08L218.149 421.38L240.039 427.59L262.019 433.43L282.779 437.28L277.319 416.96L270.059 395.37L265.129 373.14L263.459 350.04L252.269 329.49L248.339 307.01L242.349 287.16Z" stroke="#1B95E0" stroke-miterlimit="10"/>
</g>
<g opacity="0.3">
<path d="M1032.52 392.65L1049.77 408.02L1064.96 427.23L1082.49 444.1L1101.49 459.56L1114.49 480.98L1131.82 498.06L1151.16 513.83L1169.88 497.83L1185.47 479.38L1201.83 461.71L1221.06 446.83L1234.13 425.83L1255.59 413.26L1269.13 392.83L1287.75 377.41L1306.03 361.66L1323.23 344.83L1336.08 323.66L1354.41 307.95L1370.87 290.38L1390.87 276.32L1405.05 256.47L1423.98 241.36L1438.5 221.83L1458.56 207.83L1474.66 189.9L1493.06 174.25L1508.21 155.36L1525.43 138.53L1541.09 121.63L1524.68 105.11L1509.01 86.43L1488.91 72.13L1472.86 53.83L1454.92 37.29L1437.05 20.76L1422.14 1.42L1403.31 16.44L1386.05 33.22L1368.98 50.22L1356.5 71.73L1339.21 88.48L1320.15 103.48L1305 122.33L1283.71 135.09L1270.44 155.83L1252.15 171.57L1234.31 187.76L1217.8 205.28L1200.41 221.94L1185.82 241.39L1168.95 258.55L1149.95 273.55L1134.31 292.01L1116.05 307.76L1097.17 322.91L1084.07 343.83L1064.07 357.83L1050.06 377.83L1032.52 392.65Z" stroke="#40BC84" stroke-miterlimit="10"/>
<path d="M1150.06 224.9L1166.03 210.16L1180.41 192.37L1198.11 177.92L1212.42 160.06L1231.27 146.74L1245.84 129.15L1264.94 112.77L1240.83 105.84L1218.32 101.99L1196.79 94.46L1175.12 87.46L1152.21 85.08L1131.22 75.52L1110.3 74.01L1115.64 93.9L1120.46 116.15L1127.31 137.86L1134.68 159.43L1140.01 181.55L1146.26 203.4L1150.06 224.9Z" stroke="#40BC84" stroke-miterlimit="10"/>
<path d="M1426.35 287.16L1408.7 298.79L1396.93 319.18L1379.67 334.07L1361.66 348.23L1344.28 363.03L1332.42 383.34L1317.2 396.71L1336.1 404.26L1358.2 409.67L1379.76 417.08L1402.15 421.38L1424.04 427.59L1446.02 433.43L1466.78 437.28L1461.32 416.96L1454.06 395.37L1449.13 373.14L1447.46 350.04L1436.27 329.49L1432.34 307.01L1426.35 287.16Z" stroke="#40BC84" stroke-miterlimit="10"/>
</g>
</g>
</svg>